<svg width="10" height="10" viewBox="0 0 10 10" fill="none" xmlns="http://www.w3.org/2000/svg">
<path d="M9.7433 1.49372C10.085 1.15201 10.085 0.59799 9.7433 0.256282C9.40159 -0.0854272 8.84757 -0.0854272 8.50586 0.256282L4.99979 3.76235L1.49373 0.256282C1.15202 -0.0854264 0.598001 -0.0854268 0.256292 0.256282C-0.0854163 0.597991 -0.0854161 1.15201 0.256292 1.49372L3.76236 4.99978L0.256281 8.50586C-0.085427 8.84757 -0.0854273 9.40159 0.256281 9.7433C0.59799 10.085 1.15201 10.085 1.49372 9.7433L4.99979 6.23722L8.50587 9.7433C8.84758 10.085 9.4016 10.085 9.74331 9.7433C10.085 9.40159 10.085 8.84757 9.74331 8.50586L6.23723 4.99978L9.7433 1.49372Z" fill="#595959"/>
</svg>
